<svg id="svg" version="1.1" xmlns="http://www.w3.org/2000/svg" xmlns:xlink="http://www.w3.org/1999/xlink" width="400" height="400" viewBox="0, 0, 400,400"><g id="svgg"><path id="path0" d="M102.250 84.188 C 101.013 84.823,100.000 85.417,100.000 85.509 C 100.000 85.658,104.633 83.439,104.972 83.128 C 105.428 82.709,104.198 83.188,102.250 84.188 M152.333 87.462 C 152.333 87.532,152.746 87.855,153.250 88.180 L 154.167 88.770 153.532 88.052 C 152.970 87.416,152.333 87.103,152.333 87.462 M92.137 91.193 L 90.167 93.052 92.250 91.285 C 93.396 90.314,94.333 89.477,94.333 89.426 C 94.333 89.173,93.953 89.480,92.137 91.193 M159.130 93.083 C 160.067 94.046,160.899 94.792,160.980 94.742 C 161.164 94.628,157.937 91.333,157.642 91.333 C 157.523 91.333,158.192 92.121,159.130 93.083 M84.838 99.240 L 84.253 100.167 85.025 99.426 C 85.449 99.019,85.712 98.601,85.610 98.499 C 85.507 98.396,85.160 98.730,84.838 99.240 M109.889 105.556 C 109.344 106.101,109.644 150.253,110.194 150.464 C 111.193 150.848,117.514 150.686,117.933 150.267 C 118.231 149.969,118.333 146.394,118.333 136.239 C 118.333 125.493,118.421 122.640,118.750 122.750 C 118.978 122.826,121.807 129.004,125.035 136.478 C 128.263 143.953,131.114 150.201,131.369 150.362 C 132.092 150.820,138.794 150.739,139.267 150.267 C 139.691 149.843,139.882 106.948,139.464 105.861 C 139.163 105.076,131.503 105.076,131.202 105.861 C 131.091 106.151,131.000 112.463,131.000 119.888 C 131.000 129.937,130.902 133.356,130.616 133.261 C 130.404 133.190,127.634 127.086,124.459 119.696 C 121.285 112.307,118.515 106.052,118.303 105.797 C 117.898 105.309,110.352 105.093,109.889 105.556 M168.721 149.514 C 168.162 150.740,168.269 151.002,168.873 149.887 C 169.155 149.367,169.323 148.879,169.247 148.802 C 169.171 148.726,168.934 149.047,168.721 149.514 M167.512 151.862 C 167.201 152.336,167.004 152.782,167.074 152.852 C 167.144 152.922,167.465 152.534,167.786 151.990 C 168.505 150.774,168.290 150.674,167.512 151.862 M85.328 157.417 C 85.943 158.287,86.504 159.000,86.575 159.000 C 86.840 159.000,85.476 156.934,84.855 156.394 C 84.500 156.086,84.713 156.546,85.328 157.417 M163.933 157.417 C 162.680 158.965,162.214 159.667,162.440 159.667 C 162.521 159.667,163.209 158.842,163.971 157.833 C 165.605 155.669,165.579 155.384,163.933 157.417 M87.667 160.215 C 87.667 160.395,88.154 160.983,88.750 161.521 L 89.833 162.500 88.833 161.335 C 88.283 160.694,87.796 160.107,87.750 160.029 C 87.704 159.952,87.667 160.036,87.667 160.215 M159.293 162.750 C 158.446 163.621,157.852 164.333,157.974 164.333 C 158.271 164.333,161.164 161.372,160.979 161.257 C 160.899 161.207,160.140 161.879,159.293 162.750 M91.239 164.007 C 91.829 164.626,92.368 165.065,92.437 164.983 C 92.506 164.901,92.024 164.394,91.365 163.858 L 90.167 162.882 91.239 164.007 M151.244 169.179 C 150.560 169.644,150.000 170.096,150.000 170.183 C 150.000 170.271,150.600 169.946,151.333 169.460 C 152.498 168.690,152.891 168.333,152.577 168.333 C 152.528 168.333,151.928 168.714,151.244 169.179 M100.667 170.816 C 100.667 170.908,101.117 171.216,101.667 171.500 C 102.217 171.784,102.667 171.942,102.667 171.850 C 102.667 171.759,102.217 171.451,101.667 171.167 C 101.117 170.882,100.667 170.725,100.667 170.816 M80.928 303.366 C 80.876 307.967,80.944 311.905,81.078 312.116 C 81.213 312.327,81.325 308.563,81.328 303.750 C 81.331 298.938,81.263 295.000,81.178 295.000 C 81.092 295.000,80.980 298.765,80.928 303.366 M134.760 295.912 C 135.636 295.981,136.986 295.980,137.760 295.910 C 138.534 295.840,137.817 295.784,136.167 295.785 C 134.517 295.786,133.884 295.843,134.760 295.912 M125.676 302.822 C 125.453 303.091,125.348 303.503,125.442 303.739 C 125.553 304.014,125.623 303.965,125.640 303.600 C 125.655 303.288,125.929 302.880,126.250 302.693 C 126.571 302.506,126.664 302.349,126.457 302.343 C 126.251 302.338,125.899 302.553,125.676 302.822 M128.083 302.576 C 128.771 302.648,129.896 302.648,130.583 302.576 C 131.271 302.504,130.708 302.445,129.333 302.445 C 127.958 302.445,127.396 302.504,128.083 302.576 M142.764 302.581 C 144.009 302.645,145.959 302.645,147.097 302.580 C 148.235 302.515,147.217 302.462,144.833 302.463 C 142.450 302.463,141.519 302.517,142.764 302.581 M167.167 303.158 C 165.425 304.231,165.845 304.240,167.716 303.171 C 168.514 302.715,169.017 302.340,168.833 302.339 C 168.650 302.338,167.900 302.706,167.167 303.158 M220.592 302.578 C 221.376 302.648,222.576 302.647,223.259 302.576 C 223.941 302.504,223.300 302.446,221.833 302.448 C 220.367 302.449,219.808 302.507,220.592 302.578 M255.435 302.582 C 257.416 302.641,260.566 302.641,262.435 302.582 C 264.304 302.522,262.683 302.474,258.833 302.474 C 254.983 302.475,253.454 302.523,255.435 302.582 M99.750 303.705 C 98.246 304.668,98.385 304.890,99.917 303.969 C 101.466 303.037,101.515 302.999,101.139 303.006 C 100.971 303.009,100.346 303.323,99.750 303.705 M191.750 303.705 C 190.246 304.668,190.385 304.890,191.917 303.969 C 193.466 303.037,193.515 302.999,193.139 303.006 C 192.971 303.009,192.346 303.323,191.750 303.705 M285.583 303.524 C 284.337 304.200,284.413 304.482,285.667 303.833 C 286.217 303.549,286.667 303.245,286.667 303.158 C 286.667 302.944,286.631 302.956,285.583 303.524 M283.152 305.259 C 282.595 305.758,281.920 306.474,281.652 306.850 C 281.294 307.354,281.360 307.330,281.908 306.758 C 282.316 306.332,283.066 305.616,283.575 305.169 C 284.084 304.721,284.425 304.354,284.333 304.353 C 284.242 304.352,283.710 304.760,283.152 305.259 M97.436 305.417 C 96.387 306.572,95.553 307.998,95.788 308.233 C 95.905 308.349,96.000 308.281,96.000 308.081 C 96.000 307.881,96.524 307.031,97.164 306.192 C 98.415 304.554,98.538 304.202,97.436 305.417 M189.436 305.417 C 188.387 306.572,187.553 307.998,187.788 308.233 C 187.905 308.349,188.000 308.281,188.000 308.081 C 188.000 307.881,188.524 307.031,189.164 306.192 C 190.415 304.554,190.538 304.202,189.436 305.417 M241.966 305.833 C 242.528 306.921,242.990 307.523,242.987 307.167 C 242.986 306.983,242.678 306.458,242.304 306.000 C 241.851 305.446,241.738 305.391,241.966 305.833 M304.024 308.167 C 304.024 308.350,304.238 308.875,304.500 309.333 C 304.762 309.792,304.976 310.017,304.976 309.833 C 304.976 309.650,304.762 309.125,304.500 308.667 C 304.238 308.208,304.024 307.983,304.024 308.167 M110.059 310.624 C 110.485 311.149,110.883 311.536,110.944 311.485 C 111.177 311.286,110.326 310.069,109.818 309.874 C 109.441 309.729,109.512 309.949,110.059 310.624 M202.059 310.624 C 202.485 311.149,202.883 311.536,202.944 311.485 C 203.177 311.286,202.326 310.069,201.818 309.874 C 201.441 309.729,201.512 309.949,202.059 310.624 M244.145 321.667 C 244.145 326.342,244.192 328.254,244.249 325.917 C 244.306 323.579,244.306 319.754,244.249 317.417 C 244.192 315.079,244.145 316.992,244.145 321.667 M96.668 316.499 C 96.238 316.956,95.949 317.387,96.026 317.455 C 96.104 317.523,96.516 317.149,96.942 316.623 C 97.896 315.446,97.728 315.370,96.668 316.499 M188.668 316.499 C 188.238 316.956,187.949 317.387,188.026 317.455 C 188.104 317.523,188.516 317.149,188.942 316.623 C 189.896 315.446,189.728 315.370,188.668 316.499 M288.000 320.814 C 288.000 321.078,288.148 321.386,288.330 321.498 C 288.518 321.614,288.575 321.482,288.463 321.190 C 288.291 320.742,289.218 320.667,296.050 320.583 L 303.833 320.487 295.917 320.410 C 289.210 320.345,288.000 320.407,288.000 320.814 M298.975 322.583 L 298.167 323.500 299.167 322.667 C 299.717 322.208,300.229 321.796,300.306 321.750 C 300.382 321.704,300.296 321.667,300.114 321.667 C 299.932 321.667,299.419 322.079,298.975 322.583 M303.688 323.859 C 304.318 324.606,304.901 325.164,304.983 325.098 C 305.066 325.032,304.550 324.420,303.838 323.739 L 302.542 322.500 303.688 323.859 M96.000 328.438 C 96.000 328.495,96.487 328.983,97.083 329.521 L 98.167 330.500 97.188 329.417 C 96.275 328.407,96.000 328.180,96.000 328.438 M188.000 328.438 C 188.000 328.495,188.487 328.983,189.083 329.521 L 190.167 330.500 189.188 329.417 C 188.275 328.407,188.000 328.180,188.000 328.438 M301.167 330.175 C 300.433 330.627,299.966 330.997,300.127 330.998 C 300.469 331.000,302.667 329.680,302.667 329.473 C 302.667 329.261,302.601 329.292,301.167 330.175 " stroke="none" fill="#fcfcfc" fill-rule="evenodd"></path><path id="path1" d="M121.600 79.178 C 121.521 79.257,120.716 79.392,119.812 79.479 C 118.907 79.566,117.642 79.723,117.000 79.827 C 116.358 79.931,115.574 80.022,115.257 80.029 C 114.939 80.036,114.597 80.176,114.496 80.340 C 114.395 80.504,114.107 80.559,113.856 80.463 C 113.606 80.367,113.300 80.451,113.177 80.649 C 113.054 80.848,112.827 80.932,112.672 80.836 C 112.516 80.740,111.964 80.830,111.445 81.035 C 110.925 81.240,110.200 81.447,109.833 81.495 C 109.467 81.543,109.045 81.601,108.897 81.624 C 108.749 81.648,108.734 81.840,108.865 82.052 C 108.998 82.266,108.958 82.347,108.775 82.234 C 108.418 82.013,105.315 82.855,105.017 83.254 C 104.811 83.530,100.980 85.447,100.571 85.479 C 100.427 85.491,100.185 85.700,100.034 85.945 C 99.883 86.190,99.701 86.367,99.629 86.338 C 99.259 86.190,97.623 87.059,97.457 87.493 C 97.350 87.770,97.137 87.918,96.982 87.822 C 96.827 87.726,96.535 87.956,96.333 88.333 C 96.132 88.710,95.832 88.935,95.667 88.833 C 95.502 88.731,95.202 88.956,95.000 89.333 C 94.798 89.710,94.511 89.943,94.361 89.851 C 93.976 89.612,92.946 90.829,93.249 91.164 C 93.387 91.316,93.323 91.339,93.107 91.215 C 92.876 91.082,92.622 91.284,92.488 91.706 C 92.363 92.099,92.164 92.277,92.047 92.099 C 91.929 91.922,91.135 92.495,90.281 93.371 C 89.384 94.293,88.892 95.032,89.115 95.123 C 89.327 95.210,89.158 95.293,88.740 95.307 C 88.321 95.321,87.883 95.596,87.765 95.917 C 87.648 96.237,87.130 96.857,86.616 97.293 C 86.101 97.729,85.775 98.239,85.891 98.427 C 86.007 98.614,85.881 98.933,85.610 99.134 C 85.340 99.335,84.464 100.623,83.665 101.996 C 82.865 103.369,81.935 104.789,81.597 105.151 C 81.260 105.514,81.061 106.010,81.155 106.256 C 81.260 106.531,81.178 106.610,80.940 106.463 C 80.679 106.302,80.625 106.410,80.773 106.796 C 80.903 107.136,80.859 107.285,80.663 107.164 C 80.322 106.954,80.301 107.000,80.170 108.244 C 80.127 108.653,79.938 109.178,79.751 109.411 C 79.564 109.643,79.306 110.321,79.179 110.917 C 79.051 111.513,78.809 112.000,78.640 112.000 C 78.471 112.000,78.333 112.291,78.333 112.647 C 78.333 113.003,78.171 113.394,77.973 113.517 C 77.773 113.641,77.705 114.106,77.820 114.564 C 77.967 115.153,77.913 115.319,77.631 115.145 C 77.345 114.968,77.299 115.151,77.465 115.812 C 77.632 116.476,77.585 116.656,77.294 116.476 C 77.010 116.300,76.953 116.452,77.097 117.002 C 77.208 117.427,77.172 118.013,77.016 118.304 C 75.680 120.804,75.680 135.196,77.016 137.696 C 77.172 137.987,77.208 138.573,77.097 138.998 C 76.953 139.548,77.010 139.700,77.294 139.524 C 77.585 139.344,77.632 139.524,77.465 140.188 C 77.293 140.873,77.340 141.035,77.654 140.841 C 77.954 140.656,78.013 140.766,77.865 141.233 C 77.752 141.590,77.918 142.396,78.235 143.025 C 78.552 143.653,78.831 144.317,78.855 144.500 C 78.879 144.683,78.921 145.030,78.949 145.270 C 78.977 145.510,79.148 145.614,79.330 145.502 C 79.517 145.386,79.575 145.518,79.464 145.807 C 79.356 146.087,79.510 146.557,79.804 146.852 C 80.099 147.146,80.268 147.503,80.181 147.644 C 79.955 148.010,81.201 150.355,81.475 150.080 C 81.600 149.956,81.612 150.088,81.502 150.373 C 81.393 150.659,81.543 151.092,81.836 151.335 C 82.129 151.579,82.985 152.840,83.738 154.139 C 84.491 155.437,85.292 156.611,85.517 156.746 C 85.742 156.881,86.022 157.375,86.139 157.843 C 86.257 158.311,86.482 158.614,86.641 158.516 C 86.799 158.418,87.014 158.674,87.118 159.086 C 87.225 159.507,87.781 160.041,88.392 160.310 C 88.988 160.571,89.306 160.842,89.098 160.912 C 88.890 160.981,89.346 161.672,90.110 162.447 C 90.875 163.222,91.593 163.723,91.707 163.561 C 91.821 163.399,92.120 163.731,92.372 164.300 C 92.641 164.908,93.078 165.333,93.434 165.333 C 93.767 165.333,93.964 165.456,93.871 165.606 C 93.778 165.756,94.013 166.093,94.392 166.356 C 94.771 166.619,95.278 167.021,95.517 167.250 C 95.756 167.479,96.188 167.667,96.476 167.667 C 96.764 167.667,97.000 167.838,97.000 168.047 C 97.000 168.559,98.030 169.310,98.750 169.323 C 99.071 169.329,99.333 169.459,99.333 169.613 C 99.333 169.901,101.001 170.819,101.377 170.738 C 101.493 170.713,101.853 170.987,102.179 171.347 C 102.504 171.706,102.934 171.998,103.135 171.995 C 103.336 171.992,103.275 171.844,103.000 171.667 C 102.725 171.489,102.650 171.341,102.833 171.339 C 103.017 171.336,103.608 171.714,104.148 172.178 C 104.705 172.657,105.349 172.937,105.638 172.827 C 105.917 172.719,106.033 172.745,105.894 172.883 C 105.580 173.198,108.334 174.039,108.778 173.764 C 108.958 173.653,108.997 173.735,108.865 173.948 C 108.604 174.371,108.665 174.395,110.276 174.483 C 110.886 174.516,111.495 174.723,111.631 174.942 C 111.766 175.161,112.467 175.401,113.188 175.475 C 113.910 175.550,114.500 175.643,114.500 175.681 C 114.500 175.757,115.150 175.889,117.000 176.188 C 118.860 176.488,123.602 176.900,125.921 176.962 L 127.342 177.000 127.329 224.558 C 127.321 250.714,127.441 272.241,127.594 272.394 C 127.955 272.755,272.039 272.761,272.400 272.400 C 272.760 272.040,272.755 127.955,272.395 127.595 C 272.243 127.443,249.929 127.284,222.809 127.242 L 173.500 127.167 173.549 125.583 C 173.580 124.588,173.457 123.998,173.216 123.995 C 172.979 123.992,173.006 123.881,173.284 123.704 C 173.630 123.485,173.650 123.258,173.369 122.733 C 173.167 122.357,173.088 121.824,173.194 121.550 C 173.299 121.276,173.227 120.757,173.034 120.396 C 172.841 120.036,172.653 119.237,172.617 118.620 C 172.580 118.004,172.470 117.351,172.373 117.170 C 172.275 116.988,172.153 116.331,172.102 115.710 C 172.051 115.088,171.829 114.362,171.608 114.095 C 171.386 113.829,171.169 113.361,171.125 113.056 C 171.081 112.750,170.979 112.275,170.898 112.000 C 170.818 111.725,170.639 111.015,170.502 110.422 C 170.360 109.809,170.104 109.436,169.908 109.557 C 169.714 109.677,169.664 109.608,169.793 109.398 C 170.024 109.025,169.526 107.917,168.747 107.069 C 168.516 106.818,168.427 106.452,168.548 106.256 C 168.669 106.060,168.492 105.697,168.154 105.449 C 167.816 105.202,167.680 104.998,167.853 104.995 C 168.025 104.992,168.002 104.880,167.800 104.745 C 167.143 104.306,165.667 101.698,165.667 100.975 C 165.667 100.553,165.402 100.202,165.004 100.098 C 164.639 100.002,164.414 99.805,164.504 99.660 C 164.705 99.335,162.112 96.000,161.659 96.000 C 161.480 96.000,161.333 95.775,161.333 95.500 C 161.333 95.225,161.108 95.000,160.833 95.000 C 160.558 95.000,160.333 94.838,160.333 94.641 C 160.333 94.050,158.404 92.287,158.253 92.740 C 158.180 92.961,157.909 92.669,157.653 92.089 C 157.380 91.472,156.855 90.952,156.387 90.835 C 155.948 90.724,155.674 90.549,155.778 90.444 C 156.039 90.183,155.024 89.209,154.395 89.117 C 154.113 89.076,153.752 88.807,153.592 88.521 C 153.431 88.234,153.083 88.000,152.817 88.000 C 152.551 88.000,152.333 87.841,152.333 87.647 C 152.333 87.453,152.199 87.377,152.035 87.478 C 151.871 87.580,151.647 87.429,151.537 87.144 C 151.428 86.858,151.187 86.718,151.002 86.832 C 150.818 86.946,150.667 86.898,150.667 86.725 C 150.667 86.552,150.404 86.316,150.083 86.200 C 149.543 86.005,148.926 85.658,147.667 84.843 C 147.392 84.664,146.957 84.487,146.700 84.448 C 146.443 84.409,146.143 84.244,146.033 84.081 C 145.827 83.775,144.754 83.243,144.167 83.155 C 143.983 83.128,143.135 82.793,142.283 82.412 C 141.430 82.030,140.349 81.760,139.882 81.812 C 139.414 81.863,139.062 81.791,139.099 81.652 C 139.136 81.514,139.053 81.388,138.913 81.373 C 138.774 81.359,138.217 81.118,137.676 80.838 C 137.135 80.558,136.080 80.306,135.332 80.276 C 134.583 80.247,133.902 80.111,133.817 79.974 C 133.733 79.838,133.252 79.772,132.749 79.828 C 132.245 79.885,131.688 79.842,131.511 79.734 C 130.940 79.386,121.899 78.879,121.600 79.178 M119.953 107.417 C 120.643 108.929,123.224 114.882,125.687 120.645 L 130.167 131.123 130.333 118.312 C 130.425 111.265,130.621 105.313,130.770 105.083 C 131.140 104.511,139.362 104.496,139.933 105.067 C 140.619 105.753,140.499 150.120,139.810 150.810 C 139.269 151.350,132.419 151.601,131.180 151.126 C 130.449 150.845,130.119 150.155,124.668 137.500 C 122.062 131.450,119.727 126.125,119.478 125.667 C 119.092 124.953,119.025 126.660,119.013 137.560 C 119.002 148.673,118.934 150.352,118.476 150.810 C 117.856 151.430,110.740 151.574,109.645 150.988 C 108.832 150.553,108.608 105.214,109.417 104.887 C 109.646 104.795,111.828 104.707,114.265 104.693 L 118.697 104.667 119.953 107.417 M267.333 200.000 L 267.333 267.333 199.998 267.333 L 132.662 267.333 132.669 221.633 C 132.675 182.784,132.745 175.959,133.139 176.110 C 133.393 176.207,133.704 176.185,133.829 176.060 C 133.953 175.935,134.456 175.802,134.944 175.764 C 136.899 175.610,138.318 175.244,138.131 174.942 C 138.022 174.766,138.136 174.650,138.383 174.684 C 139.254 174.803,140.038 174.664,139.885 174.417 C 139.800 174.279,140.054 174.147,140.449 174.123 C 140.844 174.099,141.767 173.814,142.500 173.490 C 143.803 172.914,144.090 172.821,144.893 172.717 C 145.109 172.690,145.524 172.428,145.816 172.136 C 146.108 171.844,146.531 171.578,146.757 171.543 C 146.982 171.509,147.392 171.336,147.667 171.157 C 148.668 170.509,149.269 170.152,150.560 169.441 C 151.285 169.042,152.072 168.481,152.310 168.195 C 152.548 167.908,152.868 167.752,153.021 167.846 C 153.174 167.941,153.465 167.710,153.667 167.333 C 153.868 166.956,154.168 166.731,154.333 166.833 C 154.498 166.935,154.798 166.710,155.000 166.333 C 155.202 165.956,155.510 165.737,155.686 165.845 C 155.861 165.954,156.093 165.813,156.200 165.534 C 156.307 165.254,156.644 164.946,156.948 164.850 C 157.252 164.753,157.715 164.191,157.976 163.599 C 158.238 163.008,158.512 162.702,158.584 162.919 C 158.732 163.363,160.333 161.925,160.333 161.348 C 160.333 161.157,160.558 161.000,160.833 161.000 C 161.108 161.000,161.333 160.872,161.333 160.715 C 161.333 160.559,161.671 160.053,162.083 159.592 C 163.385 158.136,164.000 157.333,163.813 157.333 C 163.714 157.333,163.986 156.996,164.418 156.583 C 164.850 156.171,165.606 154.971,166.097 153.917 C 166.589 152.862,167.152 152.000,167.349 152.000 C 167.545 152.000,167.623 151.866,167.522 151.702 C 167.420 151.537,167.561 151.317,167.835 151.212 C 168.109 151.107,168.331 150.829,168.328 150.594 C 168.325 150.295,168.226 150.317,168.000 150.667 C 167.822 150.942,167.675 150.998,167.672 150.791 C 167.669 150.584,167.892 150.228,168.167 150.000 C 168.442 149.772,168.667 149.378,168.667 149.126 C 168.667 148.873,168.779 148.665,168.917 148.664 C 169.306 148.660,170.006 146.946,169.773 146.568 C 169.658 146.382,169.719 146.326,169.908 146.443 C 170.104 146.564,170.360 146.191,170.502 145.578 C 170.639 144.985,170.793 144.319,170.844 144.098 C 170.895 143.877,171.178 143.213,171.472 142.622 C 171.767 142.032,171.915 141.257,171.801 140.899 C 171.653 140.432,171.713 140.322,172.013 140.508 C 172.327 140.702,172.374 140.540,172.202 139.855 C 172.075 139.351,172.105 139.025,172.267 139.126 C 172.429 139.226,172.571 138.654,172.583 137.856 C 172.595 137.057,172.774 136.088,172.981 135.702 C 173.263 135.176,173.260 135.000,172.971 135.000 C 172.694 135.000,172.704 134.856,173.007 134.492 C 173.239 134.213,173.341 133.897,173.234 133.790 C 172.161 132.716,173.190 132.692,220.583 132.679 L 267.333 132.667 267.333 200.000 M158.000 291.380 C 158.000 291.497,157.737 291.572,157.417 291.546 C 157.051 291.517,156.851 291.717,156.880 292.083 C 156.905 292.404,156.830 292.667,156.713 292.667 C 156.364 292.667,156.609 330.695,156.961 331.120 C 157.364 331.605,164.542 331.592,165.029 331.104 C 165.252 330.881,165.369 327.258,165.359 320.860 L 165.345 310.961 166.339 310.615 C 166.886 310.424,167.333 310.137,167.333 309.978 C 167.333 309.818,167.543 309.768,167.800 309.867 C 168.056 309.965,168.355 309.901,168.465 309.724 C 168.582 309.535,169.136 309.509,169.815 309.663 C 170.448 309.805,171.048 309.841,171.148 309.741 C 171.248 309.641,171.605 309.809,171.942 310.114 C 172.279 310.419,172.654 310.593,172.777 310.501 C 172.900 310.409,172.938 310.421,172.861 310.528 C 172.785 310.635,172.996 310.996,173.331 311.331 C 173.891 311.891,173.942 312.695,173.958 321.338 C 173.968 326.760,174.110 330.898,174.293 331.118 C 174.704 331.614,181.874 331.592,182.373 331.094 C 182.949 330.518,182.735 311.067,182.133 309.273 C 181.991 308.848,181.841 308.318,181.802 308.095 C 181.653 307.265,178.672 303.569,178.662 304.201 C 178.659 304.366,178.521 304.286,178.355 304.023 C 178.189 303.761,177.803 303.510,177.497 303.465 C 177.192 303.420,176.672 303.140,176.343 302.842 C 175.941 302.478,175.460 302.373,174.873 302.520 C 174.324 302.658,174.000 302.602,174.000 302.369 C 174.000 302.166,173.737 302.002,173.417 302.005 C 172.918 302.009,172.906 302.057,173.333 302.333 C 173.634 302.527,173.675 302.658,173.436 302.662 C 173.218 302.664,172.942 302.510,172.824 302.318 C 172.502 301.798,169.130 302.495,168.248 303.264 C 167.926 303.544,167.571 303.682,167.458 303.569 C 167.346 303.457,167.029 303.590,166.755 303.864 C 165.663 304.956,165.500 304.245,165.500 298.388 C 165.500 295.241,165.404 292.666,165.287 292.666 C 165.170 292.667,165.095 292.404,165.120 292.083 C 165.149 291.717,164.949 291.517,164.583 291.546 C 164.262 291.572,164.000 291.497,164.000 291.380 C 164.000 291.262,162.650 291.167,161.000 291.167 C 159.350 291.167,158.000 291.262,158.000 291.380 M311.904 291.615 C 311.436 292.179,311.373 297.983,311.831 298.276 C 312.307 298.580,312.300 298.579,316.167 298.625 L 319.667 298.667 319.667 311.531 L 319.667 324.396 316.042 324.289 C 313.664 324.218,312.260 324.312,311.959 324.562 C 311.406 325.021,311.355 330.488,311.899 331.032 C 312.445 331.578,335.036 331.477,335.385 330.927 C 335.596 330.595,335.658 330.607,335.662 330.983 C 335.666 331.368,335.751 331.382,336.081 331.053 C 336.410 330.723,336.393 330.575,335.997 330.325 C 335.724 330.152,335.653 330.008,335.840 330.005 C 336.035 330.002,336.179 329.079,336.179 327.833 C 336.179 326.587,336.035 325.664,335.840 325.662 C 335.653 325.659,335.724 325.515,335.997 325.342 C 336.393 325.092,336.410 324.943,336.081 324.614 C 335.751 324.284,335.666 324.298,335.662 324.683 C 335.657 325.097,335.613 325.098,335.358 324.695 C 335.136 324.345,334.219 324.217,331.780 324.195 L 328.500 324.167 328.500 308.417 C 328.500 299.754,328.404 292.667,328.287 292.667 C 328.170 292.667,328.095 292.404,328.120 292.083 C 328.149 291.717,327.949 291.517,327.583 291.546 C 327.262 291.572,327.000 291.497,327.000 291.380 C 326.999 290.916,312.293 291.146,311.904 291.615 M261.087 292.357 C 259.263 292.736,257.908 294.363,257.784 296.325 C 257.725 297.271,257.821 298.000,258.006 298.000 C 258.186 298.000,258.309 298.112,258.280 298.250 C 257.970 299.689,260.505 301.304,262.833 301.152 C 264.480 301.044,264.535 301.025,265.333 300.333 C 265.756 299.967,266.320 299.667,266.587 299.667 C 266.888 299.667,266.996 299.471,266.873 299.149 C 266.744 298.814,266.809 298.715,267.056 298.868 C 267.316 299.029,267.378 298.874,267.250 298.385 C 267.143 297.975,267.197 297.749,267.377 297.860 C 267.557 297.972,267.656 297.535,267.609 296.837 C 267.564 296.168,267.406 295.545,267.258 295.454 C 267.110 295.362,267.078 295.144,267.186 294.969 C 267.452 294.538,265.107 292.228,264.675 292.495 C 264.487 292.611,264.333 292.542,264.333 292.343 C 264.333 291.963,262.950 291.969,261.087 292.357 M64.628 293.656 C 63.764 294.582,63.959 330.978,64.829 331.191 C 67.954 331.954,73.476 331.373,72.842 330.348 C 72.724 330.157,72.797 330.000,73.004 330.000 C 73.277 330.000,73.351 327.443,73.274 320.664 C 73.215 315.529,73.216 311.517,73.276 311.747 C 73.337 311.978,73.472 312.392,73.577 312.667 C 73.682 312.942,73.812 313.389,73.866 313.661 C 73.920 313.932,74.122 314.207,74.315 314.272 C 74.508 314.336,74.667 314.741,74.667 315.171 C 74.667 315.601,74.892 316.177,75.167 316.452 C 75.442 316.727,75.667 317.254,75.667 317.623 C 75.667 317.992,75.805 318.380,75.974 318.484 C 76.144 318.589,76.381 319.124,76.501 319.673 C 76.631 320.264,76.867 320.582,77.079 320.451 C 77.278 320.328,77.340 320.385,77.220 320.581 C 76.928 321.053,77.803 323.079,78.159 322.756 C 78.314 322.615,78.342 322.672,78.222 322.882 C 77.933 323.387,78.796 325.419,79.159 325.089 C 79.314 324.948,79.328 325.027,79.191 325.265 C 79.052 325.506,79.208 326.093,79.545 326.598 C 79.877 327.094,80.109 327.630,80.061 327.789 C 80.013 327.948,80.238 328.473,80.560 328.955 C 80.882 329.438,81.106 330.022,81.058 330.252 C 80.850 331.238,88.770 332.030,89.685 331.115 C 90.132 330.668,90.159 294.025,89.712 293.578 C 89.535 293.401,87.802 293.265,85.862 293.276 C 81.401 293.300,81.514 293.292,81.775 293.553 C 81.896 293.673,81.840 293.958,81.652 294.184 C 81.464 294.411,81.333 294.725,81.361 294.882 C 81.389 295.038,81.395 299.038,81.373 303.770 C 81.336 311.801,81.101 313.738,80.499 310.993 C 80.369 310.402,80.133 310.085,79.921 310.215 C 79.722 310.338,79.660 310.281,79.780 310.086 C 80.072 309.614,79.197 307.588,78.841 307.911 C 78.686 308.052,78.658 307.995,78.778 307.784 C 79.067 307.280,78.204 305.248,77.841 305.578 C 77.686 305.718,77.672 305.639,77.809 305.402 C 77.947 305.162,77.794 304.571,77.463 304.069 C 77.136 303.573,76.848 302.906,76.824 302.588 C 76.799 302.270,76.528 301.733,76.222 301.394 C 75.916 301.056,75.761 300.684,75.878 300.567 C 75.995 300.450,75.812 299.937,75.471 299.427 C 75.130 298.917,74.891 298.370,74.939 298.211 C 74.987 298.052,74.766 297.527,74.447 297.045 C 74.129 296.562,73.846 295.874,73.819 295.517 C 73.791 295.160,73.595 294.810,73.384 294.739 C 73.173 294.669,73.000 294.314,73.000 293.950 C 73.000 293.440,72.847 293.337,72.333 293.500 C 71.967 293.616,71.666 293.589,71.666 293.439 C 71.665 292.919,65.128 293.120,64.628 293.656 M132.122 296.405 C 132.009 296.589,131.922 298.110,131.929 299.786 L 131.943 302.833 128.888 302.833 C 126.252 302.833,125.833 302.910,125.829 303.393 C 125.827 303.701,125.714 304.064,125.579 304.199 C 125.191 304.587,125.288 308.000,125.686 308.000 C 125.880 308.000,125.943 308.157,125.824 308.348 C 125.265 309.253,126.341 309.592,129.207 309.414 L 132.062 309.236 132.017 316.534 C 131.967 324.634,131.984 325.000,132.409 325.000 C 132.572 325.000,132.620 325.140,132.514 325.310 C 132.409 325.481,132.477 325.716,132.667 325.833 C 132.856 325.950,132.920 326.193,132.809 326.372 C 132.698 326.552,132.994 327.084,133.465 327.556 C 133.937 328.028,134.226 328.583,134.108 328.790 C 133.990 328.997,134.001 329.070,134.133 328.952 C 134.266 328.834,134.777 329.107,135.270 329.559 C 135.763 330.010,136.392 330.572,136.667 330.806 C 137.392 331.424,139.272 332.003,139.843 331.784 C 140.113 331.680,140.333 331.761,140.333 331.964 C 140.333 332.167,140.492 332.333,140.686 332.333 C 140.880 332.333,140.937 332.168,140.813 331.967 C 140.657 331.714,140.780 331.691,141.210 331.894 C 141.926 332.231,143.147 332.212,144.292 331.848 C 144.837 331.674,145.013 331.710,144.855 331.964 C 144.730 332.167,144.786 332.333,144.980 332.333 C 145.174 332.333,145.333 332.174,145.333 331.980 C 145.333 331.786,145.471 331.712,145.638 331.816 C 145.806 331.919,146.019 331.816,146.112 331.585 C 146.213 331.335,146.291 331.316,146.307 331.537 C 146.338 331.975,149.364 331.401,149.713 330.892 C 149.830 330.721,150.056 330.662,150.216 330.761 C 151.156 331.342,151.708 330.052,151.542 327.664 C 151.332 324.643,150.828 323.982,148.883 324.183 C 148.122 324.262,147.000 324.323,146.389 324.318 C 145.753 324.313,145.364 324.447,145.479 324.633 C 145.607 324.840,145.312 324.852,144.667 324.667 C 144.045 324.488,143.728 324.497,143.847 324.688 C 143.953 324.860,143.880 325.000,143.686 325.000 C 143.492 325.000,143.333 324.837,143.333 324.639 C 143.333 324.440,143.159 324.336,142.946 324.407 C 142.541 324.542,140.959 323.249,140.949 322.774 C 140.946 322.623,140.826 322.350,140.682 322.167 C 140.539 321.983,140.391 319.010,140.355 315.560 L 140.289 309.287 144.728 309.335 C 150.772 309.401,150.565 309.424,150.763 308.667 C 150.859 308.300,150.839 308.000,150.719 308.000 C 150.598 308.000,150.500 307.175,150.500 306.167 C 150.500 305.158,150.646 304.333,150.824 304.333 C 151.002 304.333,150.821 304.104,150.421 303.824 C 150.001 303.530,149.774 303.108,149.883 302.824 C 150.126 302.191,149.757 302.196,149.119 302.833 C 148.721 303.231,147.790 303.320,144.560 303.266 L 140.500 303.198 144.667 303.005 L 148.833 302.813 144.667 302.656 L 140.500 302.500 140.471 299.799 C 140.429 295.855,140.678 296.071,136.188 296.071 C 133.970 296.071,132.241 296.213,132.122 296.405 M105.332 302.235 C 105.331 302.381,104.714 302.535,103.962 302.578 C 103.210 302.621,102.086 302.971,101.464 303.356 C 100.842 303.740,100.333 303.961,100.333 303.848 C 100.333 303.734,100.005 303.947,99.604 304.320 C 99.203 304.694,98.776 305.000,98.655 305.000 C 98.236 305.000,97.159 306.172,96.665 307.167 C 96.391 307.717,96.037 308.261,95.878 308.377 C 95.285 308.808,95.409 312.017,96.032 312.351 C 96.431 312.564,96.665 312.531,96.780 312.247 C 96.913 311.919,96.953 311.920,96.974 312.250 C 97.050 313.455,103.992 312.486,103.997 311.270 C 103.999 310.960,104.152 310.612,104.339 310.497 C 104.525 310.381,104.577 310.124,104.454 309.925 C 104.327 309.720,104.384 309.659,104.587 309.784 C 104.783 309.905,105.001 309.829,105.072 309.616 C 105.220 309.174,108.667 308.955,108.667 309.387 C 108.667 309.541,109.033 309.667,109.481 309.667 C 110.833 309.667,111.304 310.716,111.033 313.128 C 111.015 313.290,109.968 313.349,108.707 313.259 C 107.446 313.169,106.151 313.242,105.828 313.423 C 105.410 313.657,105.308 313.643,105.474 313.375 C 105.602 313.169,105.547 313.000,105.353 313.000 C 105.159 313.000,105.000 313.159,105.000 313.353 C 105.000 313.547,104.850 313.613,104.667 313.500 C 104.483 313.387,104.331 313.490,104.328 313.730 C 104.324 314.078,104.265 314.075,104.037 313.714 C 103.836 313.398,103.681 313.373,103.521 313.632 C 103.395 313.836,102.948 313.916,102.527 313.810 C 102.049 313.690,101.558 313.823,101.217 314.164 C 100.917 314.464,100.531 314.622,100.359 314.516 C 100.187 314.409,99.639 314.700,99.141 315.161 C 98.643 315.623,98.131 316.000,98.002 316.000 C 97.497 316.000,96.300 317.307,96.166 318.005 C 96.088 318.411,95.770 318.928,95.461 319.154 C 95.151 319.380,95.005 319.738,95.135 319.949 C 95.266 320.161,95.212 320.333,95.015 320.333 C 94.802 320.333,94.727 320.730,94.830 321.313 C 94.925 321.852,94.852 322.386,94.668 322.499 C 94.484 322.613,94.336 322.885,94.338 323.103 C 94.342 323.347,94.479 323.308,94.697 323.000 C 94.959 322.629,94.995 322.832,94.837 323.783 C 94.704 324.584,94.746 324.990,94.949 324.865 C 95.128 324.754,95.235 324.927,95.187 325.248 C 95.139 325.570,95.314 326.163,95.576 326.566 C 95.839 326.969,96.013 327.418,95.964 327.565 C 95.915 327.711,96.515 328.319,97.297 328.915 C 98.079 329.512,98.587 330.000,98.426 330.000 C 98.265 330.000,97.953 329.851,97.732 329.668 C 97.511 329.485,97.527 329.563,97.767 329.841 C 98.007 330.119,98.559 330.415,98.994 330.499 C 99.429 330.583,99.891 330.824,100.022 331.035 C 100.152 331.246,100.426 331.316,100.629 331.190 C 100.833 331.064,101.000 331.128,101.000 331.333 C 101.000 331.538,101.157 331.609,101.348 331.491 C 101.539 331.373,101.908 331.452,102.167 331.667 C 102.426 331.882,102.794 331.961,102.985 331.842 C 103.177 331.724,103.333 331.786,103.333 331.980 C 103.333 332.174,103.492 332.333,103.686 332.333 C 103.880 332.333,103.968 332.217,103.880 332.076 C 103.793 331.934,104.297 331.818,105.000 331.818 C 105.703 331.818,106.207 331.934,106.120 332.076 C 106.032 332.217,106.120 332.333,106.314 332.333 C 106.508 332.333,106.667 332.183,106.667 332.000 C 106.667 331.817,107.192 331.667,107.833 331.667 C 108.475 331.667,109.000 331.510,109.000 331.319 C 109.000 331.127,109.188 331.007,109.417 331.051 C 110.062 331.175,111.363 330.651,111.173 330.344 C 111.080 330.193,111.226 329.985,111.497 329.881 C 112.003 329.687,112.872 330.828,112.414 331.085 C 112.278 331.162,112.340 331.184,112.551 331.135 C 112.762 331.086,113.022 331.133,113.128 331.239 C 113.482 331.593,120.384 331.373,120.842 330.993 C 121.290 330.621,121.237 329.380,120.758 329.024 C 120.616 328.919,120.473 328.458,120.441 328.000 C 120.409 327.542,120.304 326.475,120.208 325.630 C 120.112 324.786,120.008 320.848,119.977 316.880 C 119.945 312.913,119.792 309.667,119.637 309.667 C 119.481 309.667,119.425 309.479,119.511 309.250 C 119.597 309.021,119.337 308.308,118.933 307.667 C 118.529 307.025,118.191 306.414,118.183 306.310 C 118.154 305.964,117.055 305.000,116.690 305.000 C 116.494 305.000,116.333 304.853,116.333 304.673 C 116.333 304.295,113.683 302.872,113.437 303.118 C 113.346 303.209,112.598 302.995,111.775 302.642 C 110.190 301.962,108.059 301.725,109.000 302.333 C 109.300 302.527,109.342 302.658,109.103 302.662 C 108.885 302.664,108.613 302.517,108.500 302.333 C 108.204 301.855,107.001 301.921,106.995 302.417 C 106.992 302.675,106.897 302.706,106.745 302.500 C 106.439 302.084,105.334 301.877,105.332 302.235 M197.332 302.235 C 197.331 302.381,196.714 302.535,195.962 302.578 C 195.210 302.621,194.086 302.971,193.464 303.356 C 192.842 303.740,192.333 303.961,192.333 303.848 C 192.333 303.734,192.005 303.947,191.604 304.320 C 191.203 304.694,190.776 305.000,190.655 305.000 C 190.236 305.000,189.159 306.172,188.665 307.167 C 188.391 307.717,188.037 308.261,187.878 308.377 C 187.285 308.808,187.409 312.017,188.032 312.351 C 188.431 312.564,188.665 312.531,188.780 312.247 C 188.913 311.919,188.953 311.920,188.974 312.250 C 189.050 313.455,195.992 312.486,195.997 311.270 C 195.999 310.960,196.152 310.612,196.339 310.497 C 196.525 310.381,196.577 310.124,196.454 309.925 C 196.327 309.720,196.384 309.659,196.587 309.784 C 196.783 309.905,197.001 309.829,197.072 309.616 C 197.220 309.174,200.667 308.955,200.667 309.387 C 200.667 309.541,201.033 309.667,201.481 309.667 C 202.833 309.667,203.304 310.716,203.033 313.128 C 203.015 313.290,201.968 313.349,200.707 313.259 C 199.446 313.169,198.151 313.242,197.828 313.423 C 197.410 313.657,197.308 313.643,197.474 313.375 C 197.602 313.169,197.547 313.000,197.353 313.000 C 197.159 313.000,197.000 313.159,197.000 313.353 C 197.000 313.547,196.850 313.613,196.667 313.500 C 196.483 313.387,196.331 313.490,196.328 313.730 C 196.324 314.078,196.265 314.075,196.037 313.714 C 195.836 313.398,195.681 313.373,195.521 313.632 C 195.395 313.836,194.948 313.916,194.527 313.810 C 194.049 313.690,193.558 313.823,193.217 314.164 C 192.917 314.464,192.531 314.622,192.359 314.516 C 192.187 314.409,191.639 314.700,191.141 315.161 C 190.643 315.623,190.131 316.000,190.002 316.000 C 189.497 316.000,188.300 317.307,188.166 318.005 C 188.088 318.411,187.770 318.928,187.461 319.154 C 187.151 319.380,187.005 319.738,187.135 319.949 C 187.266 320.161,187.212 320.333,187.015 320.333 C 186.802 320.333,186.727 320.730,186.830 321.313 C 186.925 321.852,186.852 322.386,186.668 322.499 C 186.484 322.613,186.336 322.885,186.338 323.103 C 186.342 323.347,186.479 323.308,186.697 323.000 C 186.959 322.629,186.995 322.832,186.837 323.783 C 186.704 324.584,186.746 324.990,186.949 324.865 C 187.128 324.754,187.235 324.927,187.187 325.248 C 187.139 325.570,187.314 326.163,187.576 326.566 C 187.839 326.969,188.013 327.418,187.964 327.565 C 187.915 327.711,188.515 328.319,189.297 328.915 C 190.079 329.512,190.587 330.000,190.426 330.000 C 190.265 330.000,189.953 329.851,189.732 329.668 C 189.511 329.485,189.527 329.563,189.767 329.841 C 190.007 330.119,190.559 330.415,190.994 330.499 C 191.429 330.583,191.891 330.824,192.022 331.035 C 192.152 331.246,192.426 331.316,192.629 331.190 C 192.833 331.064,193.000 331.128,193.000 331.333 C 193.000 331.538,193.157 331.609,193.348 331.491 C 193.539 331.373,193.908 331.452,194.167 331.667 C 194.426 331.882,194.794 331.961,194.985 331.842 C 195.177 331.724,195.333 331.786,195.333 331.980 C 195.333 332.174,195.492 332.333,195.686 332.333 C 195.880 332.333,195.968 332.217,195.880 332.076 C 195.793 331.934,196.297 331.818,197.000 331.818 C 197.703 331.818,198.207 331.934,198.120 332.076 C 198.032 332.217,198.120 332.333,198.314 332.333 C 198.508 332.333,198.667 332.183,198.667 332.000 C 198.667 331.817,199.192 331.667,199.833 331.667 C 200.475 331.667,201.000 331.510,201.000 331.319 C 201.000 331.127,201.188 331.007,201.417 331.051 C 202.062 331.175,203.363 330.651,203.173 330.344 C 203.080 330.193,203.226 329.985,203.497 329.881 C 204.003 329.687,204.872 330.828,204.414 331.085 C 204.278 331.162,204.340 331.184,204.551 331.135 C 204.762 331.086,205.022 331.133,205.128 331.239 C 205.482 331.593,212.384 331.373,212.842 330.993 C 213.290 330.621,213.237 329.380,212.758 329.024 C 212.616 328.919,212.473 328.458,212.441 328.000 C 212.409 327.542,212.304 326.475,212.208 325.630 C 212.112 324.786,212.008 320.848,211.977 316.880 C 211.945 312.913,211.792 309.667,211.637 309.667 C 211.481 309.667,211.425 309.479,211.511 309.250 C 211.597 309.021,211.337 308.308,210.933 307.667 C 210.529 307.025,210.191 306.414,210.183 306.310 C 210.154 305.964,209.055 305.000,208.690 305.000 C 208.494 305.000,208.333 304.853,208.333 304.673 C 208.333 304.295,205.683 302.872,205.437 303.118 C 205.346 303.209,204.598 302.995,203.775 302.642 C 202.190 301.962,200.059 301.725,201.000 302.333 C 201.300 302.527,201.342 302.658,201.103 302.662 C 200.885 302.664,200.613 302.517,200.500 302.333 C 200.204 301.855,199.001 301.921,198.995 302.417 C 198.992 302.675,198.897 302.706,198.745 302.500 C 198.439 302.084,197.334 301.877,197.332 302.235 M231.167 302.424 C 230.433 302.611,229.746 302.897,229.640 303.060 C 229.533 303.223,229.008 303.433,228.473 303.526 C 227.938 303.619,227.333 303.914,227.130 304.181 C 226.736 304.697,225.834 304.871,226.143 304.371 C 226.587 303.654,225.198 303.209,222.557 303.222 L 219.833 303.237 222.000 302.996 C 224.068 302.765,224.031 302.757,221.167 302.813 C 218.573 302.864,218.173 302.948,218.213 303.436 C 218.238 303.746,218.163 304.000,218.046 304.000 C 217.658 304.000,217.939 330.739,218.332 331.132 C 218.723 331.523,225.330 331.657,225.332 331.273 C 225.333 331.148,225.671 330.998,226.083 330.940 L 226.833 330.833 226.916 321.500 C 227.011 310.850,227.001 310.932,228.242 310.341 C 229.457 309.763,232.000 309.355,232.000 309.739 C 232.000 309.904,232.119 309.966,232.263 309.876 C 232.856 309.510,234.667 310.750,234.667 311.522 C 234.667 311.947,234.803 312.378,234.970 312.481 C 235.138 312.585,235.284 316.605,235.299 321.526 C 235.326 330.609,235.363 331.000,236.186 331.000 C 236.451 331.000,236.667 331.112,236.667 331.250 C 236.667 331.542,242.720 331.512,243.491 331.216 C 244.182 330.951,244.115 310.108,243.420 309.270 C 243.192 308.996,243.085 308.693,243.182 308.596 C 243.412 308.366,242.637 306.667,242.302 306.667 C 242.161 306.667,241.945 306.352,241.823 305.967 C 241.540 305.075,240.472 304.000,239.869 304.000 C 239.614 304.000,239.312 303.759,239.200 303.465 C 239.079 303.150,238.783 303.012,238.480 303.128 C 238.144 303.257,238.048 303.191,238.204 302.940 C 238.360 302.688,238.264 302.622,237.929 302.751 C 237.646 302.859,237.272 302.805,237.097 302.631 C 236.634 302.167,232.717 302.031,231.167 302.424 M290.667 302.296 C 290.667 302.437,290.217 302.485,289.667 302.404 C 289.081 302.319,288.667 302.407,288.667 302.618 C 288.667 302.818,288.419 302.884,288.112 302.766 C 287.707 302.611,287.632 302.674,287.833 303.000 C 288.039 303.333,287.957 303.388,287.508 303.216 C 287.097 303.058,286.752 303.206,286.419 303.682 C 286.148 304.068,285.718 304.297,285.453 304.195 C 285.190 304.094,284.890 304.233,284.786 304.504 C 284.682 304.775,284.493 304.932,284.367 304.854 C 284.240 304.776,283.482 305.377,282.681 306.189 C 281.880 307.002,281.348 307.667,281.497 307.667 C 281.646 307.667,281.448 307.944,281.057 308.284 C 280.666 308.623,280.443 308.998,280.562 309.117 C 280.681 309.236,280.594 309.333,280.369 309.333 C 280.145 309.333,280.053 309.483,280.167 309.667 C 280.280 309.850,280.198 310.000,279.984 310.000 C 279.770 310.000,279.682 310.225,279.787 310.500 C 279.893 310.775,279.855 311.000,279.703 311.000 C 279.551 311.000,279.333 311.787,279.219 312.748 C 279.105 313.709,278.859 314.547,278.673 314.609 C 278.486 314.671,278.333 314.869,278.333 315.047 C 278.333 315.226,278.509 315.264,278.723 315.132 C 278.998 314.962,279.036 315.079,278.853 315.529 C 278.440 316.542,278.622 321.734,279.061 321.463 C 279.211 321.370,279.351 321.640,279.372 322.064 C 279.393 322.487,279.445 322.983,279.488 323.167 C 279.530 323.350,279.588 323.696,279.616 323.936 C 279.644 324.176,279.815 324.281,279.996 324.169 C 280.177 324.057,280.248 324.169,280.152 324.418 C 279.922 325.018,281.810 327.594,282.816 328.053 C 283.253 328.252,283.684 328.697,283.774 329.042 C 283.889 329.481,284.114 329.602,284.524 329.445 C 284.924 329.291,285.033 329.344,284.868 329.610 C 284.712 329.863,284.886 330.000,285.360 330.000 C 285.763 330.000,286.263 330.232,286.470 330.515 C 286.677 330.798,287.218 331.055,287.673 331.086 C 288.128 331.117,288.869 331.330,289.321 331.560 C 289.963 331.887,290.197 331.889,290.399 331.572 C 290.595 331.263,290.658 331.270,290.662 331.603 C 290.664 331.843,290.817 331.947,291.000 331.833 C 291.183 331.720,291.333 331.786,291.333 331.980 C 291.333 332.174,291.492 332.333,291.686 332.333 C 291.880 332.333,291.970 332.221,291.885 332.083 C 291.800 331.946,292.639 331.858,293.751 331.889 C 294.862 331.919,296.123 331.810,296.554 331.646 C 296.984 331.483,297.878 331.289,298.539 331.216 C 299.201 331.143,299.839 330.927,299.958 330.735 C 300.076 330.544,300.391 330.337,300.658 330.277 C 300.924 330.216,301.512 329.837,301.965 329.435 C 302.418 329.032,302.888 328.764,303.010 328.839 C 303.132 328.915,303.657 328.532,304.178 327.988 C 304.699 327.445,304.984 326.998,304.812 326.995 C 304.641 326.992,304.712 326.855,304.972 326.691 C 305.352 326.451,305.243 326.192,304.414 325.363 C 303.848 324.797,303.530 324.333,303.707 324.333 C 304.126 324.333,302.737 322.947,301.522 322.150 L 300.578 321.532 299.752 322.516 C 299.298 323.057,299.044 323.275,299.187 323.000 C 299.403 322.586,299.338 322.592,298.807 323.033 C 298.455 323.326,297.904 323.658,297.583 323.772 C 297.262 323.886,297.000 324.096,297.000 324.240 C 297.000 324.460,293.861 324.539,291.482 324.379 C 290.807 324.334,288.206 322.203,288.125 321.629 C 288.102 321.466,288.065 321.099,288.042 320.814 C 288.016 320.500,287.835 320.387,287.583 320.529 C 287.273 320.705,287.261 320.662,287.538 320.361 C 287.815 320.060,290.034 319.984,296.257 320.062 C 300.848 320.119,304.543 320.068,304.468 319.948 C 304.393 319.827,304.656 319.813,305.052 319.917 C 305.545 320.046,305.696 319.984,305.532 319.719 C 305.401 319.507,305.453 319.333,305.647 319.333 C 305.848 319.333,306.000 318.617,306.000 317.667 C 306.000 316.558,305.860 315.998,305.583 315.995 C 305.319 315.992,305.291 315.900,305.507 315.745 C 306.007 315.385,306.134 313.333,305.656 313.333 C 305.435 313.333,305.350 313.104,305.463 312.809 C 305.574 312.521,305.483 311.958,305.261 311.559 C 305.039 311.160,304.839 310.758,304.817 310.667 C 304.653 309.976,303.976 308.691,303.682 308.509 C 303.484 308.387,303.397 308.167,303.488 308.020 C 303.578 307.873,303.356 307.410,302.993 306.992 C 302.630 306.574,302.333 306.119,302.333 305.981 C 302.333 305.843,301.658 305.334,300.833 304.851 C 300.008 304.367,299.333 303.846,299.333 303.691 C 299.333 303.218,297.875 302.997,297.600 303.429 C 297.418 303.716,297.342 303.681,297.338 303.306 C 297.333 302.790,296.936 302.656,295.417 302.658 C 295.004 302.659,294.667 302.520,294.667 302.350 C 294.667 302.180,294.367 302.064,294.000 302.092 C 293.633 302.119,293.331 302.297,293.328 302.488 C 293.325 302.678,293.175 302.608,292.995 302.333 C 292.703 301.889,292.630 301.889,292.338 302.333 C 292.158 302.608,292.008 302.678,292.005 302.488 C 292.002 302.297,291.700 302.119,291.333 302.092 C 290.967 302.064,290.667 302.156,290.667 302.296 M265.789 302.596 C 266.153 303.184,264.599 303.325,258.500 303.257 L 252.500 303.189 258.833 302.994 L 265.167 302.798 258.361 302.759 C 251.609 302.720,251.550 302.726,250.944 303.496 C 250.229 304.404,250.083 307.950,250.733 308.600 C 251.044 308.911,251.044 309.000,250.733 309.000 C 250.513 309.000,250.333 309.159,250.333 309.353 C 250.333 309.547,250.471 309.621,250.638 309.518 C 250.806 309.414,250.999 309.498,251.068 309.704 C 251.151 309.954,252.376 310.061,254.763 310.026 L 258.333 309.973 258.333 317.180 L 258.333 324.386 255.083 324.329 C 250.828 324.255,250.591 324.274,250.833 324.667 C 250.947 324.850,250.880 325.000,250.686 325.000 C 250.466 325.000,250.333 326.061,250.333 327.833 C 250.333 329.605,250.466 330.667,250.686 330.667 C 250.880 330.667,250.947 330.817,250.833 331.000 C 250.720 331.183,250.824 331.335,251.064 331.337 C 264.245 331.449,273.803 331.330,274.082 331.051 C 274.567 330.566,274.522 325.055,274.028 324.562 C 273.777 324.311,272.449 324.167,270.400 324.167 L 267.167 324.167 267.167 314.167 C 267.167 305.696,267.090 304.099,266.667 303.725 C 266.392 303.483,266.354 303.379,266.583 303.495 C 267.312 303.864,267.031 303.040,266.293 302.645 C 265.904 302.437,265.678 302.415,265.789 302.596 M130.589 303.238 C 130.088 303.314,129.188 303.316,128.589 303.242 C 127.990 303.167,128.400 303.105,129.500 303.103 C 130.600 303.101,131.090 303.162,130.589 303.238 M293.672 309.740 C 293.675 310.038,293.774 310.016,294.000 309.667 C 294.178 309.392,294.325 309.329,294.328 309.527 C 294.331 309.725,294.706 310.087,295.161 310.330 C 295.616 310.574,296.077 311.052,296.185 311.392 C 296.293 311.732,296.546 311.908,296.747 311.783 C 296.982 311.638,297.037 311.756,296.900 312.112 C 296.783 312.417,296.828 312.667,297.000 312.667 C 297.172 312.667,297.226 312.892,297.121 313.167 C 296.892 313.763,288.195 313.919,287.833 313.333 C 287.720 313.150,287.811 313.000,288.036 313.000 C 288.261 313.000,288.353 312.909,288.242 312.798 C 287.944 312.500,288.830 311.490,290.622 310.083 C 291.565 309.343,293.664 309.107,293.672 309.740 M110.125 319.330 L 111.416 319.333 111.268 321.116 C 111.148 322.562,109.667 325.438,109.667 324.225 C 109.667 324.096,109.179 324.193,108.583 324.440 C 106.123 325.461,103.526 324.354,103.462 322.258 C 103.441 321.575,103.553 321.097,103.712 321.195 C 103.870 321.293,104.000 321.216,104.000 321.025 C 104.000 320.252,106.467 319.001,107.667 319.166 C 108.308 319.254,109.414 319.328,110.125 319.330 M202.125 319.330 L 203.416 319.333 203.268 321.116 C 203.148 322.562,201.667 325.438,201.667 324.225 C 201.667 324.096,201.179 324.193,200.583 324.440 C 198.123 325.461,195.526 324.354,195.462 322.258 C 195.441 321.575,195.553 321.097,195.712 321.195 C 195.870 321.293,196.000 321.216,196.000 321.025 C 196.000 320.252,198.467 319.001,199.667 319.166 C 200.308 319.254,201.414 319.328,202.125 319.330 " stroke="none" fill="#c4f4e4" fill-rule="evenodd"></path><path id="path2" d="" stroke="none" fill="#100f8f0" fill-rule="evenodd"></path><path id="path3" d="M109.417 104.887 C 108.608 105.214,108.832 150.553,109.645 150.988 C 110.740 151.574,117.856 151.430,118.476 150.810 C 118.934 150.352,119.002 148.673,119.013 137.560 C 119.025 126.660,119.092 124.953,119.478 125.667 C 119.727 126.125,122.062 131.450,124.668 137.500 C 130.119 150.155,130.449 150.845,131.180 151.126 C 132.419 151.601,139.269 151.350,139.810 150.810 C 140.499 150.120,140.619 105.753,139.933 105.067 C 139.362 104.496,131.140 104.511,130.770 105.083 C 130.621 105.313,130.425 111.265,130.333 118.312 L 130.167 131.123 125.687 120.645 C 123.224 114.882,120.643 108.929,119.953 107.417 L 118.697 104.667 114.265 104.693 C 111.828 104.707,109.646 104.795,109.417 104.887 M118.303 105.797 C 118.515 106.052,121.285 112.307,124.459 119.696 C 127.634 127.086,130.404 133.190,130.616 133.261 C 130.902 133.356,131.000 129.937,131.000 119.888 C 131.000 112.463,131.091 106.151,131.202 105.861 C 131.503 105.076,139.163 105.076,139.464 105.861 C 139.882 106.948,139.691 149.843,139.267 150.267 C 138.794 150.739,132.092 150.820,131.369 150.362 C 131.114 150.201,128.263 143.953,125.035 136.478 C 121.807 129.004,118.978 122.826,118.750 122.750 C 118.421 122.640,118.333 125.493,118.333 136.239 C 118.333 146.394,118.231 149.969,117.933 150.267 C 117.514 150.686,111.193 150.848,110.194 150.464 C 109.644 150.253,109.344 106.101,109.889 105.556 C 110.352 105.093,117.898 105.309,118.303 105.797 M319.485 311.500 C 319.485 318.650,319.529 321.528,319.583 317.895 C 319.637 314.262,319.637 308.412,319.583 304.895 C 319.529 301.378,319.485 304.350,319.485 311.500 M255.077 310.248 L 257.987 310.359 258.084 317.430 L 258.181 324.500 258.257 317.250 L 258.333 310.000 255.250 310.069 L 252.167 310.137 255.077 310.248 M108.256 313.242 C 108.855 313.316,109.755 313.314,110.256 313.238 C 110.757 313.162,110.267 313.101,109.167 313.103 C 108.067 313.105,107.657 313.167,108.256 313.242 M200.256 313.242 C 200.855 313.316,201.755 313.314,202.256 313.238 C 202.757 313.162,202.267 313.101,201.167 313.103 C 200.067 313.105,199.657 313.167,200.256 313.242 M235.144 321.833 C 235.144 326.233,235.191 327.987,235.249 325.731 C 235.307 323.475,235.307 319.875,235.249 317.731 C 235.191 315.587,235.144 317.433,235.144 321.833 M291.936 320.249 C 294.192 320.307,297.792 320.307,299.936 320.249 C 302.079 320.191,300.233 320.144,295.833 320.144 C 291.433 320.144,289.679 320.191,291.936 320.249 " stroke="none" fill="#d4f8f0" fill-rule="evenodd"></path><path id="path4" d="M198.276 127.250 C 211.720 127.298,233.620 127.298,246.943 127.250 C 260.266 127.202,249.267 127.162,222.500 127.162 C 195.733 127.162,184.833 127.202,198.276 127.250 M272.830 200.000 C 272.830 239.142,272.869 255.154,272.917 235.583 C 272.964 216.012,272.964 183.987,272.917 164.417 C 272.869 144.846,272.830 160.858,272.830 200.000 M220.250 132.917 L 267.000 133.002 267.000 200.001 L 267.000 267.000 200.001 267.000 L 133.002 267.000 132.917 221.750 L 132.831 176.500 132.749 221.917 L 132.667 267.333 200.000 267.333 L 267.333 267.333 267.333 200.000 L 267.333 132.667 220.417 132.749 L 173.500 132.831 220.250 132.917 M127.162 224.000 C 127.162 249.942,127.202 260.554,127.250 247.583 C 127.298 234.612,127.298 213.387,127.250 200.417 C 127.202 187.446,127.162 198.058,127.162 224.000 M164.417 272.917 C 183.987 272.964,216.012 272.964,235.583 272.917 C 255.154 272.869,239.142 272.830,200.000 272.830 C 160.858 272.830,144.846 272.869,164.417 272.917 M159.583 291.244 C 160.362 291.314,161.637 291.314,162.417 291.244 C 163.196 291.174,162.558 291.116,161.000 291.116 C 159.442 291.116,158.804 291.174,159.583 291.244 M316.435 291.249 C 318.416 291.308,321.566 291.308,323.435 291.248 C 325.304 291.189,323.683 291.141,319.833 291.141 C 315.983 291.141,314.454 291.190,316.435 291.249 M258.762 293.202 C 258.356 293.641,258.150 294.000,258.304 294.000 C 258.459 294.000,258.770 293.777,258.997 293.504 C 259.224 293.231,259.540 293.088,259.701 293.188 C 259.861 293.287,259.903 293.135,259.794 292.851 C 259.685 292.566,259.574 292.349,259.548 292.369 C 259.521 292.388,259.168 292.763,258.762 293.202 M67.093 293.245 C 67.970 293.314,69.320 293.313,70.093 293.244 C 70.867 293.174,70.150 293.117,68.500 293.118 C 66.850 293.119,66.217 293.177,67.093 293.245 M84.427 293.245 C 85.303 293.314,86.653 293.313,87.427 293.244 C 88.200 293.174,87.483 293.117,85.833 293.118 C 84.183 293.119,83.550 293.177,84.427 293.245 M156.489 311.500 C 156.489 321.767,156.531 326.015,156.583 320.940 C 156.635 315.866,156.635 307.466,156.583 302.274 C 156.531 297.081,156.489 301.233,156.489 311.500 M165.396 298.397 C 165.362 301.457,165.446 304.031,165.583 304.116 C 165.721 304.202,165.794 302.523,165.746 300.386 C 165.591 293.452,165.461 292.713,165.396 298.397 M328.495 308.583 L 328.500 324.167 331.333 324.186 L 334.167 324.206 331.420 324.090 L 328.673 323.974 328.582 308.487 L 328.490 293.000 328.495 308.583 M311.433 295.000 C 311.433 296.008,311.496 296.421,311.572 295.917 C 311.648 295.412,311.648 294.587,311.572 294.083 C 311.496 293.579,311.433 293.992,311.433 295.000 M90.155 312.500 C 90.155 322.033,90.198 325.885,90.250 321.060 C 90.302 316.235,90.302 308.435,90.250 303.727 C 90.198 299.019,90.155 302.967,90.155 312.500 M131.776 300.167 C 131.778 301.450,131.838 301.934,131.910 301.243 C 131.982 300.551,131.981 299.501,131.907 298.909 C 131.834 298.317,131.775 298.883,131.776 300.167 M140.443 300.167 C 140.444 301.450,140.504 301.934,140.577 301.243 C 140.649 300.551,140.648 299.501,140.574 298.909 C 140.500 298.317,140.441 298.883,140.443 300.167 M314.250 298.912 C 315.212 298.980,316.787 298.980,317.750 298.912 C 318.712 298.845,317.925 298.790,316.000 298.790 C 314.075 298.790,313.287 298.845,314.250 298.912 M127.147 302.809 C 127.584 303.163,128.395 303.317,129.647 303.283 L 131.500 303.232 129.500 303.031 C 128.400 302.921,127.275 302.708,127.000 302.557 C 126.725 302.407,126.791 302.520,127.147 302.809 M148.811 302.655 C 148.634 302.833,146.692 303.025,144.495 303.084 L 140.500 303.190 144.543 303.262 C 147.793 303.319,148.666 303.235,149.000 302.833 C 149.459 302.280,149.319 302.148,148.811 302.655 M219.500 302.832 C 220.382 303.541,225.028 303.461,224.752 302.742 C 224.629 302.421,224.475 302.392,224.222 302.644 C 223.764 303.103,220.508 303.106,219.561 302.648 C 218.846 302.303,218.845 302.306,219.500 302.832 M258.833 303.000 L 252.500 303.189 258.667 303.256 C 262.207 303.295,265.046 303.185,265.333 303.000 C 265.608 302.822,265.683 302.707,265.500 302.744 C 265.317 302.781,262.317 302.896,258.833 303.000 M217.818 317.167 C 217.818 324.317,217.862 327.194,217.916 323.561 C 217.970 319.928,217.970 314.078,217.916 310.561 C 217.862 307.044,217.818 310.017,217.818 317.167 M267.159 314.167 L 267.167 324.167 269.667 324.188 L 272.167 324.209 269.755 324.090 L 267.343 323.972 267.247 314.069 L 267.151 304.167 267.159 314.167 M129.575 309.580 L 131.651 309.698 131.751 315.266 L 131.851 320.833 131.925 315.083 L 132.000 309.333 129.750 309.398 L 127.500 309.462 129.575 309.580 M140.408 314.917 L 140.482 320.500 140.583 315.094 L 140.683 309.687 144.758 309.582 L 148.833 309.477 144.583 309.405 L 140.333 309.333 140.408 314.917 M165.480 321.000 C 165.480 326.042,165.526 328.104,165.583 325.583 C 165.639 323.063,165.639 318.938,165.583 316.417 C 165.526 313.896,165.480 315.958,165.480 321.000 M120.140 318.667 C 120.140 322.242,120.189 323.704,120.249 321.917 C 120.308 320.129,120.308 317.204,120.249 315.417 C 120.189 313.629,120.140 315.092,120.140 318.667 M212.140 318.667 C 212.140 322.242,212.189 323.704,212.249 321.917 C 212.308 320.129,212.308 317.204,212.249 315.417 C 212.189 313.629,212.140 315.092,212.140 318.667 M182.812 321.667 C 182.812 326.342,182.858 328.254,182.916 325.917 C 182.973 323.579,182.973 319.754,182.916 317.417 C 182.858 315.079,182.812 316.992,182.812 321.667 M173.811 322.000 C 173.811 326.492,173.858 328.329,173.916 326.083 C 173.973 323.837,173.973 320.162,173.916 317.917 C 173.858 315.671,173.811 317.508,173.811 322.000 M111.095 320.833 C 111.098 321.750,111.163 322.085,111.239 321.579 C 111.316 321.072,111.314 320.322,111.235 319.912 C 111.156 319.502,111.093 319.917,111.095 320.833 M203.095 320.833 C 203.098 321.750,203.163 322.085,203.239 321.579 C 203.316 321.072,203.314 320.322,203.235 319.912 C 203.156 319.502,203.093 319.917,203.095 320.833 M253.760 324.245 C 254.636 324.314,255.986 324.313,256.760 324.244 C 257.534 324.174,256.817 324.117,255.167 324.118 C 253.517 324.119,252.884 324.177,253.760 324.245 M314.750 324.245 C 315.621 324.314,317.046 324.314,317.917 324.245 C 318.787 324.176,318.075 324.120,316.333 324.120 C 314.592 324.120,313.879 324.176,314.750 324.245 M274.443 327.833 C 274.444 329.117,274.504 329.601,274.577 328.909 C 274.649 328.218,274.648 327.168,274.574 326.576 C 274.500 325.984,274.441 326.550,274.443 327.833 M311.437 327.833 C 311.438 328.933,311.501 329.343,311.575 328.744 C 311.649 328.145,311.648 327.245,311.572 326.744 C 311.495 326.243,311.435 326.733,311.437 327.833 M151.596 328.667 C 151.676 329.217,151.800 329.667,151.871 329.667 C 151.942 329.667,152.000 329.217,152.000 328.667 C 152.000 328.117,151.876 327.667,151.724 327.667 C 151.573 327.667,151.515 328.117,151.596 328.667 M235.023 330.186 C 234.970 331.001,235.935 331.853,236.394 331.397 C 236.757 331.036,236.742 330.995,236.307 331.161 C 235.964 331.291,235.653 331.095,235.413 330.597 C 235.211 330.177,235.035 329.992,235.023 330.186 M67.259 331.578 C 68.043 331.648,69.243 331.647,69.925 331.576 C 70.608 331.504,69.967 331.446,68.500 331.448 C 67.033 331.449,66.475 331.507,67.259 331.578 M84.592 331.578 C 85.376 331.648,86.576 331.647,87.259 331.576 C 87.941 331.504,87.300 331.446,85.833 331.448 C 84.367 331.449,83.808 331.507,84.592 331.578 M115.250 331.577 C 116.029 331.648,117.304 331.648,118.083 331.577 C 118.862 331.507,118.225 331.450,116.667 331.450 C 115.108 331.450,114.471 331.507,115.250 331.577 M159.750 331.576 C 160.438 331.648,161.563 331.648,162.250 331.576 C 162.938 331.504,162.375 331.445,161.000 331.445 C 159.625 331.445,159.063 331.504,159.750 331.576 M177.083 331.576 C 177.771 331.648,178.896 331.648,179.583 331.576 C 180.271 331.504,179.708 331.445,178.333 331.445 C 176.958 331.445,176.396 331.504,177.083 331.576 M207.250 331.577 C 208.029 331.648,209.304 331.648,210.083 331.577 C 210.862 331.507,210.225 331.450,208.667 331.450 C 207.108 331.450,206.471 331.507,207.250 331.577 M221.259 331.578 C 222.043 331.648,223.243 331.647,223.925 331.576 C 224.608 331.504,223.967 331.446,222.500 331.448 C 221.033 331.449,220.475 331.507,221.259 331.578 M238.259 331.578 C 239.043 331.648,240.243 331.647,240.925 331.576 C 241.608 331.504,240.967 331.446,239.500 331.448 C 238.033 331.449,237.475 331.507,238.259 331.578 M257.250 331.583 C 260.046 331.638,264.621 331.638,267.417 331.583 C 270.212 331.527,267.925 331.481,262.333 331.481 C 256.742 331.481,254.454 331.527,257.250 331.583 M318.604 331.583 C 321.595 331.638,326.395 331.638,329.271 331.583 C 332.147 331.527,329.700 331.482,323.833 331.482 C 317.967 331.482,315.614 331.528,318.604 331.583 M104.309 332.127 C 104.732 332.316,105.268 332.316,105.691 332.127 C 106.253 331.876,106.124 331.818,105.000 331.818 C 103.876 331.818,103.747 331.876,104.309 332.127 M196.309 332.127 C 196.732 332.316,197.268 332.316,197.691 332.127 C 198.253 331.876,198.124 331.818,197.000 331.818 C 195.876 331.818,195.747 331.876,196.309 332.127 M292.000 332.004 C 292.275 332.180,292.938 332.325,293.472 332.328 C 294.762 332.335,294.481 332.143,292.833 331.890 C 291.925 331.751,291.660 331.787,292.000 332.004 " stroke="none" fill="#c4f8f4" fill-rule="evenodd"></path></g></svg>